<svg width="96" height="97" viewBox="0 0 96 97" fill="none" xmlns="http://www.w3.org/2000/svg">
<g clip-path="url(#clip0_591_105653)">
<path d="M69.3043 32.8909H63.4609L60.2348 28.0213C59.0174 26.1953 56.887 25.0996 54.6957 25.0996H41.3043C39.113 25.0996 36.9826 26.1953 35.7652 28.0213L32.5391 32.8909H26.6957C22.9826 32.8909 20 35.8735 20 39.5866V63.204C20 66.917 22.9826 69.8996 26.6957 69.8996H69.3043C73.0174 69.8996 76 66.917 76 63.204V39.5866C76 35.8735 73.0174 32.8909 69.3043 32.8909ZM48 64.4213C39.6609 64.4213 32.9043 57.6648 32.9043 49.3257C32.9043 40.9866 39.6609 34.2909 48 34.2909C56.3391 34.2909 63.0956 41.0474 63.0956 49.3866C63.0956 57.6648 56.3391 64.4213 48 64.4213ZM68.4522 42.3257C68.3913 42.3257 68.3304 42.3257 68.2087 42.3257H65.7739C64.6783 42.2648 63.8261 41.3518 63.887 40.2561C63.9478 39.2213 64.7391 38.43 65.7739 38.3692H68.2087C69.3043 38.3083 70.2174 39.1605 70.2783 40.2561C70.3391 41.3518 69.5478 42.2648 68.4522 42.3257Z" fill="#DBE0E3"/>
<path d="M47.9977 40.9863C43.3716 40.9863 39.5977 44.7602 39.5977 49.3863C39.5977 54.0124 43.3716 57.7255 47.9977 57.7255C52.6237 57.7255 56.3977 53.9515 56.3977 49.3255C56.3977 44.6994 52.6237 40.9863 47.9977 40.9863Z" fill="#DBE0E3"/>
<circle cx="48" cy="48.5" r="46" stroke="#CFD5D9" stroke-width="4"/>
<path d="M15 82.5L82 14.5" stroke="#CFD5D9" stroke-width="4"/>
</g>
<defs>
<clipPath id="clip0_591_105653">
<rect width="96" height="96" fill="white" transform="translate(0 0.5)"/>
</clipPath>
</defs>
</svg>
